<svg width="71" height="68" viewBox="0 0 71 68" fill="none" xmlns="http://www.w3.org/2000/svg">
<path d="M63.8334 14.25H56.1125C56.5021 13.1521 56.75 11.9479 56.75 10.7083C56.75 4.82916 52.0042 0.0833282 46.125 0.0833282C42.4063 0.0833282 39.1834 1.99583 37.2709 4.86458L35.5 7.23749L33.7292 4.82916C31.8167 1.99583 28.5938 0.0833282 24.875 0.0833282C18.9959 0.0833282 14.25 4.82916 14.25 10.7083C14.25 11.9479 14.498 13.1521 14.8875 14.25H7.16671C3.23546 14.25 0.118791 17.4021 0.118791 21.3333L0.083374 60.2917C0.083374 64.2229 3.23546 67.375 7.16671 67.375H63.8334C67.7646 67.375 70.9167 64.2229 70.9167 60.2917V21.3333C70.9167 17.4021 67.7646 14.25 63.8334 14.25ZM46.125 7.16666C48.073 7.16666 49.6667 8.76041 49.6667 10.7083C49.6667 12.6562 48.073 14.25 46.125 14.25C44.1771 14.25 42.5834 12.6562 42.5834 10.7083C42.5834 8.76041 44.1771 7.16666 46.125 7.16666ZM24.875 7.16666C26.823 7.16666 28.4167 8.76041 28.4167 10.7083C28.4167 12.6562 26.823 14.25 24.875 14.25C22.9271 14.25 21.3334 12.6562 21.3334 10.7083C21.3334 8.76041 22.9271 7.16666 24.875 7.16666ZM63.8334 60.2917H7.16671V53.2083H63.8334V60.2917ZM63.8334 42.5833H7.16671V21.3333H25.1584L17.7917 31.3562L23.5292 35.5L31.9584 24.025L35.5 19.2083L39.0417 24.025L47.4709 35.5L53.2084 31.3562L45.8417 21.3333H63.8334V42.5833Z" fill="white"/>
</svg>
